<?xml version="1.0" standalone="no"?>
<!DOCTYPE svg PUBLIC "-//W3C//DTD SVG 20010904//EN"
 "http://www.w3.org/TR/2001/REC-SVG-20010904/DTD/svg10.dtd">
<svg version="1.0" xmlns="http://www.w3.org/2000/svg"
 width="379.000000pt" height="79.000000pt" viewBox="0 0 379.000000 79.000000"
 preserveAspectRatio="xMidYMid meet">

<g transform="translate(0.000000,79.000000) scale(0.100000,-0.100000)"
fill="#000000" stroke="none">
<path d="M440 733 c-8 -3 -25 -14 -36 -25 -21 -19 -21 -19 -27 2 -5 19 -11 21
-99 18 l-93 -3 -3 -55 c-1 -30 1 -93 5 -140 l8 -85 60 0 c58 0 60 1 63 28 2
19 9 27 23 27 10 0 19 6 19 13 0 6 9 -2 20 -20 35 -58 105 -79 160 -46 30 17
70 79 70 109 0 15 3 14 26 -7 l26 -24 -24 -6 c-18 -4 -23 -12 -21 -33 3 -39
20 -56 58 -56 69 0 112 70 81 132 -9 17 -15 33 -13 35 2 2 18 0 35 -3 32 -6
32 -7 32 -69 0 -75 11 -87 72 -83 l43 3 8 73 c6 49 13 72 22 72 13 0 20 -31
27 -115 l3 -30 160 -1 c88 -1 165 -3 170 -4 19 -5 33 0 59 21 l26 21 -20 25
c-18 23 -19 28 -5 43 8 9 15 22 15 28 0 7 9 12 20 12 18 0 20 -7 20 -64 0 -76
11 -88 72 -84 l43 3 8 73 c6 50 13 72 22 72 14 0 23 -33 27 -105 l3 -40 60 0
c55 0 60 2 66 25 l6 25 4 -25 4 -25 143 -3 c142 -2 142 -2 154 22 6 14 7 33 3
43 -5 10 -7 22 -6 27 1 5 4 41 7 80 3 39 7 76 9 83 2 6 -2 16 -9 22 -18 15
-644 15 -663 0 -9 -9 -21 -8 -44 1 -24 10 -114 13 -367 13 l-336 -1 -22 -25
c-20 -23 -24 -24 -35 -11 -29 36 -95 53 -139 37z m119 -47 c31 -32 40 -114 18
-169 -21 -48 -71 -74 -119 -61 -98 28 -108 215 -14 255 33 14 88 2 115 -25z
m185 28 c22 -9 23 -94 1 -94 -24 0 -28 -25 -11 -59 22 -41 20 -58 -9 -86 -24
-25 -85 -36 -85 -16 0 5 -3 16 -6 24 -4 11 2 16 17 19 35 5 33 23 -5 62 -55
54 -48 126 14 149 21 8 65 8 84 1z m568 -4 c69 -20 90 -92 43 -148 l-24 -29
24 -23 25 -23 -28 -18 c-27 -17 -27 -17 -54 15 l-27 31 -1 -27 c0 -26 -3 -28
-44 -28 l-43 0 -7 53 c-3 28 -6 84 -6 124 0 60 3 72 18 76 32 9 87 7 124 -3z
m-952 -50 c0 -49 -1 -50 -30 -50 -25 0 -30 -4 -30 -25 0 -20 5 -25 25 -25 18
0 25 -5 25 -20 0 -15 -7 -20 -25 -20 -21 0 -25 -5 -25 -30 0 -29 -2 -30 -44
-30 l-43 0 -7 77 c-3 42 -6 98 -6 125 l0 48 80 0 80 0 0 -50z m610 0 c0 -46
-2 -50 -24 -50 -22 0 -24 -5 -31 -75 l-7 -75 -39 0 -39 0 0 75 c0 73 -1 75
-25 75 -18 0 -25 5 -25 19 0 10 -3 33 -6 50 l-6 31 101 0 101 0 0 -50z m182 0
c-4 -48 -5 -50 -33 -50 -19 0 -29 -5 -29 -15 0 -10 10 -15 29 -15 24 0 28 -3
24 -20 -3 -13 -14 -20 -29 -20 -17 0 -24 -6 -24 -20 0 -16 7 -20 30 -20 32 0
33 -1 24 -24 -5 -12 -21 -16 -74 -16 l-67 0 -6 68 c-4 37 -7 93 -7 125 l0 57
83 0 82 0 -3 -50z m436 3 c-2 -39 -7 -49 -23 -52 -29 -5 -35 -19 -35 -88 l0
-63 -34 0 c-32 0 -34 2 -40 46 -3 26 -6 60 -6 75 0 24 -4 29 -25 29 -23 0 -25
3 -25 50 l0 50 96 0 95 0 -3 -47z m124 -28 c-4 -74 -4 -75 20 -75 25 0 25 1
20 75 l-5 75 49 0 49 0 -3 -102 c-4 -144 -5 -148 -47 -148 -32 0 -35 2 -35 30
0 20 -5 30 -15 30 -7 0 -19 8 -24 18 -8 13 -10 7 -11 -30 l0 -48 -45 0 -45 0
0 73 c0 39 -3 96 -6 125 l-7 52 54 0 54 0 -3 -75z m318 25 c0 -49 -1 -50 -30
-50 -20 0 -30 -5 -30 -15 0 -9 9 -15 25 -15 18 0 25 -5 25 -20 0 -14 -7 -20
-24 -20 -15 0 -26 -7 -29 -20 -4 -17 0 -20 28 -20 28 0 32 -3 28 -20 -5 -18
-14 -20 -74 -20 l-69 0 0 64 c0 34 -3 91 -6 125 l-7 61 82 0 81 0 0 -50z
m-1677 -77 c-7 -2 -19 -2 -25 0 -7 3 -2 5 12 5 14 0 19 -2 13 -5z"/>
<path d="M467 603 c-9 -8 -9 -66 -1 -87 10 -26 31 -18 43 14 17 49 -14 102
-42 73z m24 -65 c-9 -20 -10 -18 -10 17 0 31 2 36 9 23 6 -10 7 -25 1 -40z"/>
<path d="M1270 590 c0 -33 11 -38 30 -15 15 18 6 45 -15 45 -10 0 -15 -10 -15
-30z"/>
<path d="M3256 620 c-49 -59 -26 -130 43 -130 61 0 109 77 80 129 -11 20 -24
27 -55 29 -36 3 -45 -1 -68 -28z"/>
<path d="M3439 561 c-39 -40 -40 -91 -2 -121 48 -38 118 1 129 72 12 74 -70
106 -127 49z"/>
<path d="M3066 530 c-48 -57 -25 -130 40 -130 64 0 113 76 83 129 -11 20 -24
27 -55 29 -36 3 -45 -1 -68 -28z"/>
<path d="M3300 430 c-14 -5 -70 -28 -125 -52 -85 -38 -103 -50 -120 -80 -40
-75 6 -116 133 -117 54 -1 70 -6 108 -32 25 -17 60 -33 79 -36 30 -5 39 -1 70
30 19 19 35 44 35 55 0 17 -27 83 -82 199 -6 12 -24 27 -41 33 -16 5 -30 10
-31 9 -1 0 -12 -4 -26 -9z"/>
<path d="M3527 394 c-30 -30 -37 -57 -24 -97 26 -80 147 -35 147 54 0 21 -7
45 -16 53 -24 25 -77 20 -107 -10z"/>
<path d="M1473 330 c-21 -9 -23 -15 -22 -87 1 -43 4 -105 8 -138 l6 -60 55 0
c47 0 56 3 65 22 5 13 13 23 16 23 3 0 22 11 42 24 l35 24 15 -39 c21 -53 69
-74 152 -65 33 4 87 7 120 9 51 2 61 5 70 25 5 12 13 22 16 22 3 0 22 11 42
24 l36 25 3 -47 3 -47 55 0 c47 0 56 3 65 23 5 12 13 22 16 22 3 0 23 11 43
25 40 27 43 25 48 -35 l3 -35 143 -3 c142 -2 142 -2 154 22 6 14 7 33 3 43 -5
10 -7 22 -6 28 1 5 3 21 3 35 l1 26 33 -35 c32 -35 32 -36 11 -42 -17 -4 -22
-12 -20 -33 3 -39 20 -56 58 -56 69 0 112 70 81 131 -20 39 -20 36 4 42 17 4
20 13 20 54 0 26 -4 54 -9 62 -14 21 -94 26 -132 7 -22 -11 -36 -13 -44 -6 -8
7 -70 9 -161 8 -146 -3 -149 -3 -152 -26 l-3 -23 -30 25 c-51 43 -185 47 -196
6 -5 -18 -6 -18 -34 3 -32 23 -30 23 -283 18 -117 -2 -129 -4 -133 -21 -5 -19
-6 -19 -33 1 -31 23 -131 35 -167 19z m116 -16 c51 -11 81 -46 81 -97 0 -53
-27 -93 -70 -102 -23 -5 -30 -12 -30 -31 0 -22 -4 -24 -44 -24 l-43 0 -6 68
c-11 108 -8 180 6 185 18 8 70 8 106 1z m450 0 c51 -11 81 -46 81 -97 0 -53
-27 -93 -70 -102 -23 -5 -30 -12 -30 -31 0 -22 -4 -24 -44 -24 l-43 0 -6 68
c-11 108 -8 180 6 185 18 8 70 8 106 1z m220 0 c51 -11 81 -46 81 -97 0 -53
-27 -93 -70 -102 -23 -5 -30 -12 -30 -31 0 -22 -4 -24 -44 -24 l-43 0 -6 68
c-11 108 -8 180 6 185 18 8 70 8 106 1z m555 0 c22 -9 23 -94 1 -94 -24 0 -28
-25 -11 -59 22 -41 20 -58 -9 -86 -24 -25 -85 -36 -85 -16 0 5 -3 16 -6 24 -4
11 2 16 17 19 35 5 33 23 -5 62 -55 54 -48 126 14 149 21 8 65 8 84 1z m-1022
-111 c3 -93 5 -108 21 -111 15 -3 17 7 17 107 l0 111 35 0 35 0 0 -124 0 -125
-45 -6 c-115 -18 -155 22 -163 166 l-5 89 51 0 51 0 3 -107z m684 61 c-3 -26
-6 -82 -6 -125 l0 -79 -44 0 -43 0 -7 53 c-3 28 -6 85 -6 125 l0 72 56 0 57 0
-7 -46z m176 -4 c-4 -48 -5 -50 -33 -50 -19 0 -29 -5 -29 -15 0 -10 10 -15 29
-15 24 0 28 -3 24 -20 -3 -13 -14 -20 -29 -20 -17 0 -24 -6 -24 -20 0 -16 7
-20 30 -20 32 0 33 -1 24 -24 -5 -12 -21 -16 -74 -16 l-67 0 -6 68 c-4 37 -7
93 -7 125 l0 57 83 0 82 0 -3 -50z"/>
<path d="M1570 184 c0 -23 4 -34 12 -32 33 11 36 68 3 68 -11 0 -15 -10 -15
-36z"/>
<path d="M2020 184 c0 -23 4 -34 12 -32 33 11 36 68 3 68 -11 0 -15 -10 -15
-36z"/>
<path d="M2240 184 c0 -23 4 -34 12 -32 33 11 36 68 3 68 -11 0 -15 -10 -15
-36z"/>
</g>
</svg>
